<svg xmlns="http://www.w3.org/2000/svg" width="62" height="15" viewBox="0 0 62 15">
    <g fill="none" fill-rule="evenodd">
        <path fill="#4F5254" d="M37.793 3.546l.338-1.57H28.09l-.333 1.57h3.81l-.009.038-1.406 6.696h2.277l1.424-6.734zM38.814 1.976l-1.776 8.303h2.277l1.758-8.303zM47.553 11.991l-1.3 2.042L45.826 12h-.488l.586 2.57h.416l1.299-2.01.444 2.01h.425L50.19 12h-.5l-1.295 2.033-.443-2.042zM52.994 1.976h-2.449l-4.78 6.699-1.912-6.699h-2.405l2.158 7.415c.153.54.954.963 1.82.963.887 0 1.84-.404 2.216-.938l5.352-7.44zM55.9 1.976c-1.635 0-3.157.91-3.39 2.03l-.905 4.217c-.11.511.07 1.006.506 1.39.48.423 1.23.666 2.052.666h5.49l.336-1.57H54.46c-.192 0-.364-.055-.47-.148a.315.315 0 0 1-.114-.31l.293-1.33h5.123l.341-1.572h-5.125l.274-1.318c.052-.266.42-.485.82-.485h5.459l.335-1.57H55.9zM16.975 7.567c-.568 0-1.47.03-2.542.177l-.56 2.541h2.768l.573-2.718h-.239M14.976 2.793h-.002c-.108 0-.399.03-.757.313l-3.74 3.104c-.315.044-3.246.383-5.151 1l6.444-5.078C13.702.608 15.264.445 15.848.445h.01V.45c.483 0 1.377.084 1.938.638.463.46.6 1.151.408 2.054l-.776 3.476-2.775.028.76-3.351c.034-.168.01-.298-.076-.382-.104-.103-.27-.12-.361-.12M23.079 8.725c-.873 0-1.655-.25-2.145-.69-.44-.389-.617-.9-.498-1.433l.2-.908c.25-1.194 1.86-2.165 3.586-2.165l.257-.002 1.737-.002c.457 0 .702.001.75.004h.096l.318-1.553h-.073c-.034-.002-.304-.002-.802-.002-.643 0-1.487 0-1.833.002h-.154c-2.95 0-5.7 1.654-6.13 3.691l-.198.907c-.198.932.122 1.824.904 2.512.858.757 2.202 1.194 3.69 1.194h5.009l.331-1.555H23.08zM38.103 11.948c-.493 0-.804.207-1.063.468l.084-.416h-.482l-.535 2.552h.48l.305-1.443c.104-.481.56-.82 1.06-.82.451 0 .75.195.793.531a.849.849 0 0 1-.014.287l-.303 1.445h.48l.294-1.421c.026-.134.047-.277.032-.395-.063-.483-.507-.788-1.13-.788M41.424 11.948c-1.083 0-1.777.796-1.68 1.577.084.647.714 1.084 1.57 1.084.568 0 .927-.167 1.218-.38l-.282-.25c-.27.189-.536.3-.955.3-.598 0-1.013-.305-1.072-.768l-.004-.09h2.523a1.1 1.1 0 0 0 .054-.498c-.068-.532-.556-.975-1.372-.975m.904 1.169h-2.08c.122-.47.555-.85 1.19-.85.556 0 .845.305.89.656.011.084.004.144 0 .194M44.168 11.479h-.482l-.184.858h-.004l-.315 1.488a.896.896 0 0 0-.01.268c.041.33.388.502.85.502a1.5 1.5 0 0 0 .504-.074l.074-.345c-.169.054-.316.08-.458.08-.274 0-.455-.084-.477-.263a.925.925 0 0 1 0-.186l.208-.971h.005l.104-.5h1.167l.07-.335h-1.166l.114-.522zM51.885 11.948c-1.03 0-1.804.725-1.705 1.518.086.66.728 1.143 1.614 1.143 1.01 0 1.814-.708 1.71-1.522-.086-.662-.732-1.14-1.619-1.14m-.103 2.322c-.598 0-1.05-.295-1.115-.813-.076-.592.486-1.174 1.229-1.174.6 0 1.05.302 1.115.82.079.607-.504 1.167-1.229 1.167M54.734 12.668l.134-.668h-.48l-.537 2.552h.48l.215-1.01c.158-.767.811-1.175 1.517-1.175h.033l.085-.41c-.647-.029-1.11.267-1.447.71M61.007 13.86l-.281.586-.279-.586h-.19v.733h.13v-.585h.004l.284.585h.103l.284-.585h.004v.585h.129v-.733zM59.412 13.86v.096h.28v.637h.128v-.637h.279v-.096zM58.692 12l-1.117.836-.632.458.38-1.755h-.48l-.652 3.012h.481l.14-.657.722-.527.992 1.19h.538l-1.175-1.44 1.477-1.118z"/>
        <path fill="#F9AB18" d="M17.092 6.529c-3.028 0-12.045 0-16.44 3.75h4.01c4.71-3.323 12.18-3.364 12.505-3.364.067 0 .13 0 .193.004l.086-.39h-.354z"/>
    </g>
</svg>
